<?xml version="1.0" encoding="UTF-8"?>
<svg width="31px" height="24px" viewBox="0 0 31 24" version="1.1" xmlns="http://www.w3.org/2000/svg" xmlns:xlink="http://www.w3.org/1999/xlink">
    <!-- Generator: Sketch 54.1 (76490) - https://sketchapp.com -->
    <title>noun_Office_2331291</title>
    <desc>Created with Sketch.</desc>
    <g id="LocateUs" stroke="none" stroke-width="1" fill="none" fill-rule="evenodd">
        <g id="02_LocateUs" transform="translate(-277.000000, -601.000000)" fill="#6D3078" fill-rule="nonzero">
            <g id="noun_Office_2331291" transform="translate(277.000000, 601.000000)">
                <path d="M19.6690909,16.9909091 L23.3345455,16.9909091 C23.7490909,16.9909091 24.0872727,16.6527273 24.0872727,16.2381818 C24.0872727,15.8236364 23.7490909,15.4854545 23.3345455,15.4854545 L19.6690909,15.4854545 C19.2545455,15.4854545 18.9163636,15.8236364 18.9163636,16.2381818 C18.9163636,16.6527273 19.2545455,16.9909091 19.6690909,16.9909091 Z" id="Path"></path>
                <path d="M19.6690909,11.2909091 L23.3345455,11.2909091 C23.7490909,11.2909091 24.0872727,10.9527273 24.0872727,10.5381818 C24.0872727,10.1236364 23.7490909,9.78545455 23.3345455,9.78545455 L19.6690909,9.78545455 C19.2545455,9.78545455 18.9163636,10.1236364 18.9163636,10.5381818 C18.9163636,10.9527273 19.2545455,11.2909091 19.6690909,11.2909091 Z" id="Path"></path>
                <path d="M12.12,4.85454545 L14.4490909,4.85454545 C14.8636364,4.85454545 15.2018182,4.51636364 15.2018182,4.10181818 C15.2018182,3.68727273 14.8636364,3.34909091 14.4490909,3.34909091 L12.12,3.34909091 C11.7054545,3.34909091 11.3672727,3.68727273 11.3672727,4.10181818 C11.3672727,4.51636364 11.7109091,4.85454545 12.12,4.85454545 Z" id="Path"></path>
                <path d="M12.12,9.39818182 L14.4490909,9.39818182 C14.8636364,9.39818182 15.2018182,9.06 15.2018182,8.64545455 C15.2018182,8.23090909 14.8636364,7.89272727 14.4490909,7.89272727 L12.12,7.89272727 C11.7054545,7.89272727 11.3672727,8.23090909 11.3672727,8.64545455 C11.3672727,9.06 11.7109091,9.39818182 12.12,9.39818182 Z" id="Path"></path>
                <path d="M12.12,13.9363636 L14.4490909,13.9363636 C14.8636364,13.9363636 15.2018182,13.5981818 15.2018182,13.1836364 C15.2018182,12.7690909 14.8636364,12.4309091 14.4490909,12.4309091 L12.12,12.4309091 C11.7054545,12.4309091 11.3672727,12.7690909 11.3672727,13.1836364 C11.3672727,13.5981818 11.7109091,13.9363636 12.12,13.9363636 Z" id="Path"></path>
                <path d="M6.99818182,4.85454545 L9.32727273,4.85454545 C9.74181818,4.85454545 10.08,4.51636364 10.08,4.10181818 C10.08,3.68727273 9.74181818,3.34909091 9.32727273,3.34909091 L6.99818182,3.34909091 C6.58363636,3.34909091 6.24545455,3.68727273 6.24545455,4.10181818 C6.24545455,4.51636364 6.58909091,4.85454545 6.99818182,4.85454545 Z" id="Path"></path>
                <path d="M6.99818182,9.39818182 L9.32727273,9.39818182 C9.74181818,9.39818182 10.08,9.06 10.08,8.64545455 C10.08,8.23090909 9.74181818,7.89272727 9.32727273,7.89272727 L6.99818182,7.89272727 C6.58363636,7.89272727 6.24545455,8.23090909 6.24545455,8.64545455 C6.24545455,9.06 6.58909091,9.39818182 6.99818182,9.39818182 Z" id="Path"></path>
                <path d="M6.99818182,13.9363636 L9.32727273,13.9363636 C9.74181818,13.9363636 10.08,13.5981818 10.08,13.1836364 C10.08,12.7690909 9.74181818,12.4309091 9.32727273,12.4309091 L6.99818182,12.4309091 C6.58363636,12.4309091 6.24545455,12.7690909 6.24545455,13.1836364 C6.24545455,13.5981818 6.58909091,13.9363636 6.99818182,13.9363636 Z" id="Path"></path>
                <path d="M29.8309091,23.28 L27.0709091,23.28 L27.0709091,5.32909091 C27.0709091,4.76727273 26.6127273,4.30363636 26.0454545,4.30363636 L17.9727273,4.30363636 L17.9727273,4.09090909 L17.9727273,1.19454545 C17.9727273,0.632727273 17.5145455,0.169090909 16.9472727,0.169090909 L4.5,0.169090909 C3.93818182,0.169090909 3.47454545,0.627272727 3.47454545,1.19454545 L3.47454545,23.28 L0.714545455,23.28 C0.561818182,23.28 0.441818182,23.4 0.441818182,23.5527273 C0.441818182,23.7054545 0.561818182,23.8254545 0.714545455,23.8254545 L3.74727273,23.8254545 L5.24727273,23.8254545 L8.23090909,23.8254545 L13.2163636,23.8254545 L16.2,23.8254545 L17.7,23.8254545 L25.2927273,23.8254545 L26.7927273,23.8254545 L29.8254545,23.8254545 C29.9781818,23.8254545 30.0981818,23.7054545 30.0981818,23.5527273 C30.0981818,23.4 29.9836364,23.28 29.8309091,23.28 Z M15.9327273,23.28 L13.2218182,23.28 L11.7218182,23.28 L11.7218182,20.8745455 L9.73636364,20.8745455 L9.73636364,23.28 L8.23636364,23.28 L5.52545455,23.28 L5.52545455,2.22 L15.9327273,2.22 L15.9327273,23.28 Z M17.4327273,4.09090909 L17.4327273,4.57636364 L17.4327273,6.07636364 L17.4327273,9.78545455 L17.4327273,23.28 L16.4781818,23.28 L16.4781818,1.94727273 C16.4781818,1.79454545 16.3581818,1.67454545 16.2054545,1.67454545 L5.24727273,1.67454545 C5.09454545,1.67454545 4.97454545,1.79454545 4.97454545,1.94727273 L4.97454545,23.28 L4.02,23.28 L4.02,1.19454545 C4.02,0.932727273 4.23272727,0.714545455 4.5,0.714545455 L16.9527273,0.714545455 C17.2145455,0.714545455 17.4327273,0.927272727 17.4327273,1.19454545 L17.4327273,4.09090909 Z M25.0254545,23.28 L17.9781818,23.28 L17.9781818,9.79090909 L17.9781818,6.35454545 L25.0254545,6.35454545 L25.0254545,23.28 Z M26.5254545,23.28 L25.5709091,23.28 L25.5709091,6.07636364 C25.5709091,5.92363636 25.4509091,5.80363636 25.2981818,5.80363636 L17.9781818,5.80363636 L17.9781818,4.84909091 L26.0509091,4.84909091 C26.3127273,4.84909091 26.5309091,5.06181818 26.5309091,5.32909091 L26.5309091,23.28 L26.5254545,23.28 Z" id="Shape"></path>
            </g>
        </g>
    </g>
</svg>