<?xml version="1.0" encoding="UTF-8"?>
<svg width="30px" height="41px" viewBox="0 0 30 41" version="1.1" xmlns="http://www.w3.org/2000/svg" xmlns:xlink="http://www.w3.org/1999/xlink">
    <!-- Generator: Sketch 53.2 (72643) - https://sketchapp.com -->
    <title>3</title>
    <desc>Created with Sketch.</desc>
    <g id="BR1_Dashboard" stroke="none" stroke-width="1" fill="none" fill-rule="evenodd">
        <g id="01_BR1_Dashboard" transform="translate(-277.000000, -521.000000)">
            <g id="3" transform="translate(277.000000, 522.000000)">
                <path d="M23.3123815,8.32245769 L14.153984,5.82812116 L11.9035091,7.69973344 C11.1966887,6.63984679 10.8236732,5.40678054 10.8236732,4.13381591 L10.8236732,2.0814571 C10.8236732,0.933346883 11.7569857,3.43951534e-05 12.905096,3.43951534e-05 C14.0532062,3.43951534e-05 14.9865187,0.933346883 14.9865187,2.0814571 L14.9865187,2.91399179 C14.9865187,3.14289154 15.1738003,3.33034512 15.402872,3.33034512 C15.6319437,3.33034512 15.8192253,3.14306351 15.8192253,2.91399179 L15.8192253,2.0814571 C15.8192253,0.933346883 16.7525378,3.43951534e-05 17.900648,3.43951534e-05 C19.0487583,3.43951534e-05 19.9820707,0.933346883 19.9820707,2.0814571 L19.9820707,2.91399179 C19.9820707,3.14289154 20.1693524,3.33034512 20.3984241,3.33034512 C20.6274958,3.33034512 20.8147774,3.14306351 20.8147774,2.91399179 L20.8147774,2.0814571 C20.8147774,0.933346883 21.7480899,3.43951534e-05 22.8962001,3.43951534e-05 C24.0443103,3.43951534e-05 24.9776228,0.933346883 24.9776228,2.0814571 L24.9776228,4.13381591 C24.9776228,5.40678054 24.6046074,6.64070666 23.897787,7.69973344 L23.3123815,8.32245769 Z" id="Fill-1" stroke="#F37435" stroke-width="1.5"></path>
                <path d="M4.16286261,21.6438554 L1.66525855,21.6438554 L1.66525855,9.15497518 L4.16303459,9.15497518 L4.16303459,21.6438554 L4.16286261,21.6438554 Z M10.1875177,20.8111487 L8.52227633,19.978614 L5.82810397,19.978614 L5.82810397,7.4899058 L1.71975767e-05,7.4899058 L1.71975767e-05,23.3089248 L5.82810397,23.3089248 L5.82810397,21.6436834 L8.12931171,21.6436834 L9.79455306,22.4762181 L9.64718546,22.4762181 L10.823656,20.8109767 L10.1875177,20.8111487 Z" id="Fill-3" fill="#6D3078"></path>
                <path d="M17.8705179,39.1222685 C12.2505218,38.8957764 7.5956537,34.1325636 7.4948759,28.5051726 C7.44242329,25.6027375 8.52896619,22.8578323 10.552949,20.7770975 C12.3380575,18.9412562 13.3212429,16.6508829 13.3212429,14.329554 L17.4840883,11.6561907 L19.1493297,13.3214321 L19.1493297,21.6438554 L24.9774165,21.6438554 L25.9523471,20.6414086 C28.0088333,22.6862005 29.1402619,25.407889 29.1402619,28.3077444 C29.1402619,31.2817213 27.9587884,34.0544866 25.8132187,36.1151003 C23.7785734,38.0697768 21.1327262,39.1313832 18.3226422,39.1313832 C18.1719914,39.1313832 18.0220285,39.1286316 17.8705179,39.1222685 Z" id="Fill-5" stroke="#F37435" stroke-width="1.5"></path>
                <path d="M24.1448818,10.8202165 L23.1682314,10.8202165 C23.0917022,10.2956904 22.8910064,9.79610084 22.5496346,9.36908501 L22.3781747,9.15514716 L24.1448818,9.15514716 C24.6037131,9.15514716 24.9774165,9.52902247 24.9774165,9.98768184 C24.9775884,10.4463412 24.6037131,10.8202165 24.1448818,10.8202165 M24.1448818,14.1505273 L21.0601524,14.1505273 C21.3924096,14.0514692 21.7129724,13.8965191 22.0025796,13.6793137 C22.4222005,13.364598 22.7319289,12.9508243 22.9384718,12.4854579 L24.1448818,12.4854579 C24.6037131,12.4854579 24.9774165,12.8593332 24.9774165,13.3179926 C24.9774165,13.7766519 24.6037131,14.1505273 24.1448818,14.1505273 M24.1448818,17.480838 L20.814571,17.480838 C20.3557397,17.480838 19.9820363,17.1069627 19.9820363,16.6483033 C19.9820363,16.189472 20.3559117,15.8157686 20.814571,15.8157686 L24.1448818,15.8157686 C24.6037131,15.8157686 24.9774165,16.1896439 24.9774165,16.6483033 C24.9775884,17.1071346 24.6037131,17.480838 24.1448818,17.480838 M24.1448818,20.8111487 L20.814571,20.8111487 C20.3557397,20.8111487 19.9820363,20.4372734 19.9820363,19.978614 C19.9820363,19.5197827 20.3559117,19.1460793 20.814571,19.1460793 L24.1448818,19.1460793 C24.6037131,19.1460793 24.9774165,19.5199547 24.9774165,19.978614 C24.9775884,20.4374454 24.6037131,20.8111487 24.1448818,20.8111487 M25.9932773,11.6561907 C26.392949,11.2131812 26.6426578,10.6312152 26.6426578,9.9894016 C26.6426578,8.61239164 25.5220637,7.4899058 24.1448818,7.4899058 L21.0460504,7.4899058 L20.4664921,6.76554387 L13.9599609,4.90476607 L8.85709595,9.15497518 L4.99555208,9.15497518 L4.99555208,10.8202165 L9.45987102,10.8202165 L14.3487981,6.74800235 L19.4982685,8.21994294 L21.2500137,10.4088505 C21.4814931,10.6986297 21.5838186,11.0616705 21.5372132,11.4295267 C21.4906078,11.7975548 21.3007465,12.1239648 21.0035724,12.3461575 C20.4664921,12.7490967 19.7030917,12.6949244 19.2268908,12.2195833 L17.5466875,10.5393801 L12.8018761,14.3354012 L13.8418136,15.635882 L17.422693,12.7709377 L18.0488568,13.3977893 C18.1405198,13.4894524 18.2428454,13.5642619 18.3436232,13.641651 C18.4043307,14.2494133 18.6258355,14.606607 18.9663475,14.9837499 C18.5666758,15.4267594 18.316967,16.0078655 18.316967,16.6496791 C18.316967,17.2914927 18.5675357,17.8727708 18.9663475,18.3149205 C18.5666758,18.75793 18.316967,19.3364565 18.316967,19.9784421 C18.316967,21.3571718 19.4375611,22.4762181 20.814743,22.4762181 L24.1450537,22.4762181 C25.5220637,22.4762181 26.6428298,21.3571718 26.6428298,19.9801618 C26.6428298,19.3381763 26.3922611,18.7587899 25.9936213,18.3157803 C26.393121,17.8727708 26.6428298,17.2933844 26.6428298,16.650539 C26.6428298,16.0078655 26.3922611,15.4283072 25.9936213,14.9852976 C26.393121,14.5422881 26.6428298,13.9620418 26.6428298,13.3200563 C26.6426578,12.6785867 26.3920891,12.0990283 25.9932773,11.6561907" id="Fill-7" fill="#6D3078"></path>
                <path d="M14.4459644,23.3103006 L22.4930545,23.3103006 L22.4930545,23.3269822 C22.0192613,24.0577073 21.751323,24.4479203 21.6900997,24.4981372 L19.5404026,24.4981372 C19.8358569,24.8439805 20.0365527,25.2649771 20.1424897,25.7612992 L22.4345828,25.7612992 C22.4624428,25.7668024 22.4763729,25.7779808 22.4763729,25.7946625 C21.9631972,26.564426 21.7012781,26.9491358 21.6900997,26.9491358 L20.2009615,26.9491358 C20.1675982,27.345196 19.9780809,27.8219128 19.6324096,28.3796303 C19.1751261,28.9430229 18.7371038,29.3079554 18.3190307,29.4754598 C17.5380887,29.8489912 16.791026,30.0355849 16.0771546,30.0355849 L16.0771546,30.0524385 C16.0771546,30.1083307 16.2527418,30.33981 16.6042603,30.7467047 L20.5775884,35.5400133 L20.5775884,35.7659894 C20.5775884,35.7881743 20.5636584,35.7993527 20.5357983,35.7993527 L18.7874927,35.7993527 C15.6420559,32.135409 14.0695095,30.2950963 14.0695095,30.2785867 L14.0695095,29.1659035 L14.0861911,29.1241133 C14.3649638,29.1631518 14.6913739,29.1825851 15.0650772,29.1825851 C16.8271409,29.1825851 17.9229705,28.6109377 18.352394,27.4678147 C18.4192926,27.3004823 18.4528278,27.1276467 18.4528278,26.9491358 L13.668118,26.9491358 C13.6457612,26.9491358 13.6345828,26.9379574 13.6345828,26.9157725 C14.1642681,26.146009 14.434786,25.7612992 14.4459644,25.7612992 L18.2437053,25.7612992 L18.2437053,25.7446175 C18.0263279,25.3040156 17.6049873,24.961096 16.9805433,24.7156865 C16.5344381,24.570711 16.1328747,24.4981372 15.776025,24.4981372 L13.6512644,24.4981372 L13.6512644,24.4563471 C14.1642681,23.6924307 14.4292828,23.3103006 14.4459644,23.3103006" id="Fill-11" fill="#F37435"></path>
            </g>
        </g>
    </g>
</svg>