<?xml version="1.0" encoding="UTF-8"?>
<svg width="39px" height="32px" viewBox="0 0 39 32" version="1.1" xmlns="http://www.w3.org/2000/svg" xmlns:xlink="http://www.w3.org/1999/xlink">
    <!-- Generator: Sketch 53.2 (72643) - https://sketchapp.com -->
    <title>4</title>
    <desc>Created with Sketch.</desc>
    <g id="BR1_Dashboard" stroke="none" stroke-width="1" fill="none" fill-rule="evenodd">
        <g id="01_BR1_Dashboard" transform="translate(-161.000000, -379.000000)">
            <g id="4" transform="translate(162.000000, 380.000000)">
                <polyline id="Path" stroke="#6D3078" stroke-width="1.6" stroke-linecap="round" stroke-linejoin="round" points="36.6666667 1.66666667 36.6666667 11.6666667 26.6666667 11.6666667"></polyline>
                <polyline id="Path" stroke="#6D3078" stroke-width="1.6" stroke-linecap="round" stroke-linejoin="round" points="0 28.3333333 0 18.3333333 10 18.3333333"></polyline>
                <path d="M4.18333333,10 C5.90146939,5.14468609 9.99044528,1.51036374 15.0138112,0.373763775 C20.0371771,-0.762836191 25.2924014,0.757242888 28.9333333,4.4 L36.6666667,11.6666667 M0,18.3333333 L7.73333333,25.6 C11.3742653,29.2427571 16.6294895,30.7628362 21.6528555,29.6262362 C26.6762214,28.4896363 30.7651973,24.8553139 32.4833333,20" id="Shape" stroke="#6D3078" stroke-width="1.6" stroke-linecap="round" stroke-linejoin="round"></path>
                <path d="M14.9159585,9.00292969 L24,9.00292969 L24,9.02168387 C23.4649013,9.84062077 23.1627325,10.2782141 23.0934844,10.3344769 L20.6666667,10.3344769 C21.0003164,10.7220654 21.2269431,11.194041 21.3465534,11.750418 L23.9338999,11.750418 C23.9653763,11.7566694 23.9811143,11.7691721 23.9811143,11.7879263 C23.4019486,12.6506232 23.106075,13.0819652 23.0934844,13.0819652 L21.4126534,13.0819652 C21.3748818,13.5258165 21.1608455,14.0603054 20.7705382,14.6854481 C20.2543254,15.3168422 19.7601534,15.7263045 19.2880076,15.9138473 C18.4066686,16.3326929 17.5631139,16.5421125 16.7573182,16.5421125 L16.7573182,16.5608667 C16.7573182,16.623381 16.9556165,16.8828113 17.3522191,17.3391655 L21.8375826,22.7122398 L21.8375826,22.9654213 C21.8375826,22.990427 21.8218447,23.0029297 21.7903683,23.0029297 L19.8168083,23.0029297 C16.2662712,18.8957424 14.4910293,16.8328025 14.4910293,16.8140482 L14.4910293,15.5668949 L14.509915,15.5200094 C14.8246789,15.5637694 15.1929472,15.585649 15.6147309,15.585649 C17.6040389,15.585649 18.8410426,14.9448874 19.325779,13.663345 C19.4013224,13.4758022 19.4390935,13.2820108 19.4390935,13.0819652 L14.0377715,13.0819652 C14.0125904,13.0819652 14,13.0694625 14,13.0444568 C14.5980515,12.1817599 14.9033679,11.750418 14.9159585,11.750418 L19.2030217,11.750418 L19.2030217,11.7316638 C18.9575059,11.2378011 18.4822195,10.8533441 17.7771483,10.5782813 C17.273526,10.4157442 16.8202727,10.3344769 16.4173749,10.3344769 L14.0188857,10.3344769 L14.0188857,10.2875914 C14.5980514,9.43114599 14.8970726,9.00292969 14.9159585,9.00292969 Z" id="`" fill="#F37435" fill-rule="nonzero"></path>
            </g>
        </g>
    </g>
</svg>