<?xml version="1.0" encoding="UTF-8"?>
<svg width="30px" height="32px" viewBox="0 0 30 32" version="1.1" xmlns="http://www.w3.org/2000/svg" xmlns:xlink="http://www.w3.org/1999/xlink">
    <!-- Generator: Sketch 53.2 (72643) - https://sketchapp.com -->
    <title>2</title>
    <desc>Created with Sketch.</desc>
    <g id="BR1_TransferToPayee(OTP)" stroke="none" stroke-width="1" fill="none" fill-rule="evenodd">
        <g id="11_BR1_TransferToPayee(OTP)" transform="translate(-34.000000, -726.000000)">
            <g id="1" transform="translate(0.000000, 696.000000)">
                <g transform="translate(24.000000, 23.000000)" id="2">
                    <g transform="translate(11.000000, 8.000000)">
                        <g id="1" transform="translate(-0.000000, 0.000000)" stroke="#6D3078" stroke-width="1.3">
                            <path d="M26.4353925,19.127774 C26.4353925,19.127774 20.4730827,29.5292535 18.7624508,30 L8.97906095,30 C7.26877487,29.5292535 1.31234474,19.127774 1.31234474,19.127774 C-0.948207309,15.1220578 0.39754055,13.0114324 0.39754055,13.0114324 C0.457374624,10.8429724 10.7851507,4.04068594 10.7851507,4.04068594 C11.0601108,3.29623403 10.5098448,3.46503026 10.444477,2.48251513 C10.3901767,1.6395427 11.7895331,1.83120377 11.7895331,1.83120377 L13.8709288,0 L15.9578583,1.83120377 C15.9578583,1.83120377 17.3572147,1.6395427 17.2973806,2.48251513 C17.2320127,3.46503026 16.6872806,3.29623403 16.9625865,4.04068594 C16.9625865,4.04068594 27.2907085,10.8429724 27.3505425,13.0114324 C27.3505425,13.0114324 28.6955987,15.1220578 26.4353925,19.127774 Z" id="Stroke-1"></path>
                            <path d="M19.4190601,11.8631291 C19.4190601,11.8631291 14.8979083,10.4101821 13.5602833,10.5618955 C12.2216124,10.4101821 7.70098364,11.8631291 7.70098364,11.8631291 C7.24918222,11.9640768 6.79685788,11.4190758 6.97778762,10.3092344 C7.13570895,9.34877228 12.0396369,8.3807245 13.2779074,8.15082044 C13.4651122,8.11639319 13.6549315,8.11639319 13.8421363,8.15082044 C15.0809298,8.3807245 19.9843348,9.34877228 20.1422561,10.3092344 C20.3142962,11.4190758 19.8708615,11.9640768 19.4190601,11.8631291 Z" id="Stroke-3"></path>
                        </g>
                        <g id="locked" transform="translate(9.837838, 17.000000)" fill="#F37435" fill-rule="nonzero" stroke="#F37435" stroke-width="0.5">
                            <path d="M6.86240786,3.35216667 L6.86240786,2.41666667 C6.86240786,1.08416667 5.56613514,0 3.97297297,0 C2.37981081,0 1.08353808,1.08416667 1.08353808,2.41666667 L1.08353808,3.35216667 C0.46935258,3.44983333 0,3.94383333 0,4.53833333 L0,7.79533333 C0,8.4595 0.585652334,9 1.3054828,9 L6.64046314,9 C7.36029361,9 7.94594595,8.4595 7.94594595,7.79516667 L7.94594595,4.53816667 C7.94594595,3.94383333 7.47659337,3.44983333 6.86240786,3.35216667 Z M1.44471744,2.41666667 C1.44471744,1.26783333 2.57882064,0.333333333 3.97297297,0.333333333 C5.36712531,0.333333333 6.5012285,1.26783333 6.5012285,2.41666667 L6.5012285,3.33333333 L1.44471744,3.33333333 L1.44471744,2.41666667 Z M7.58476658,7.79516667 C7.58476658,8.27566667 7.16110319,8.66666667 6.64046314,8.66666667 L1.3054828,8.66666667 C0.784842752,8.66666667 0.361179361,8.27566667 0.361179361,7.79516667 L0.361179361,4.53816667 C0.361179361,4.05766667 0.784842752,3.66666667 1.3054828,3.66666667 L6.64046314,3.66666667 C7.16110319,3.66666667 7.58476658,4.05766667 7.58476658,4.53816667 L7.58476658,7.79516667 Z" id="Shape"></path>
                            <path d="M3.97297297,4.66666667 C3.57459214,4.66666667 3.25061425,4.96566667 3.25061425,5.33333333 L3.25061425,6.33333333 C3.25061425,6.701 3.57459214,7 3.97297297,7 C4.37135381,7 4.6953317,6.701 4.6953317,6.33333333 L4.6953317,5.33333333 C4.6953317,4.96566667 4.37135381,4.66666667 3.97297297,4.66666667 Z M4.33415233,6.33333333 C4.33415233,6.51716667 4.17216339,6.66666667 3.97297297,6.66666667 C3.77378256,6.66666667 3.61179361,6.51716667 3.61179361,6.33333333 L3.61179361,5.33333333 C3.61179361,5.1495 3.77378256,5 3.97297297,5 C4.17216339,5 4.33415233,5.1495 4.33415233,5.33333333 L4.33415233,6.33333333 Z" id="Shape"></path>
                        </g>
                    </g>
                </g>
            </g>
        </g>
    </g>
</svg>